<svg id="visual" viewBox="0 0 1920 300" width="1920" height="300" xmlns="http://www.w3.org/2000/svg" xmlns:xlink="http://www.w3.org/1999/xlink" version="1.1"><path d="M0 103L45.7 95.5C91.3 88 182.7 73 274.2 69.7C365.7 66.3 457.3 74.7 548.8 79.7C640.3 84.7 731.7 86.3 823 96.8C914.3 107.3 1005.7 126.7 1097 126C1188.3 125.3 1279.7 104.7 1371.2 93.8C1462.7 83 1554.3 82 1645.8 80C1737.3 78 1828.7 75 1874.3 73.5L1920 72L1920 301L1874.3 301C1828.7 301 1737.3 301 1645.8 301C1554.3 301 1462.7 301 1371.2 301C1279.7 301 1188.3 301 1097 301C1005.7 301 914.3 301 823 301C731.7 301 640.3 301 548.8 301C457.3 301 365.7 301 274.2 301C182.7 301 91.3 301 45.7 301L0 301Z" fill="#5e81ac"></path><path d="M0 172L45.7 159.2C91.3 146.3 182.7 120.7 274.2 120C365.7 119.3 457.3 143.7 548.8 155.5C640.3 167.3 731.7 166.7 823 164.5C914.3 162.3 1005.7 158.7 1097 150.7C1188.3 142.7 1279.7 130.3 1371.2 120.5C1462.7 110.7 1554.3 103.3 1645.8 104.3C1737.3 105.3 1828.7 114.7 1874.3 119.3L1920 124L1920 301L1874.3 301C1828.7 301 1737.3 301 1645.8 301C1554.3 301 1462.7 301 1371.2 301C1279.7 301 1188.3 301 1097 301C1005.7 301 914.3 301 823 301C731.7 301 640.3 301 548.8 301C457.3 301 365.7 301 274.2 301C182.7 301 91.3 301 45.7 301L0 301Z" fill="#5e92b3"></path><path d="M0 157L45.7 156.2C91.3 155.3 182.7 153.7 274.2 151.2C365.7 148.7 457.3 145.3 548.8 150.5C640.3 155.7 731.7 169.3 823 177.2C914.3 185 1005.7 187 1097 181.2C1188.3 175.3 1279.7 161.7 1371.2 155.3C1462.7 149 1554.3 150 1645.8 155.7C1737.3 161.3 1828.7 171.7 1874.3 176.8L1920 182L1920 301L1874.3 301C1828.7 301 1737.3 301 1645.8 301C1554.3 301 1462.7 301 1371.2 301C1279.7 301 1188.3 301 1097 301C1005.7 301 914.3 301 823 301C731.7 301 640.3 301 548.8 301C457.3 301 365.7 301 274.2 301C182.7 301 91.3 301 45.7 301L0 301Z" fill="#68a1b6"></path><path d="M0 224L45.7 220.7C91.3 217.3 182.7 210.7 274.2 208C365.7 205.3 457.3 206.7 548.8 212C640.3 217.3 731.7 226.7 823 223C914.3 219.3 1005.7 202.7 1097 193.3C1188.3 184 1279.7 182 1371.2 182.8C1462.7 183.7 1554.3 187.3 1645.8 187.7C1737.3 188 1828.7 185 1874.3 183.5L1920 182L1920 301L1874.3 301C1828.7 301 1737.3 301 1645.8 301C1554.3 301 1462.7 301 1371.2 301C1279.7 301 1188.3 301 1097 301C1005.7 301 914.3 301 823 301C731.7 301 640.3 301 548.8 301C457.3 301 365.7 301 274.2 301C182.7 301 91.3 301 45.7 301L0 301Z" fill="#79afb8"></path><path d="M0 271L45.7 265C91.3 259 182.7 247 274.2 243.5C365.7 240 457.3 245 548.8 248.3C640.3 251.7 731.7 253.3 823 251C914.3 248.7 1005.7 242.3 1097 244.2C1188.3 246 1279.7 256 1371.2 260.5C1462.7 265 1554.3 264 1645.8 259.2C1737.3 254.3 1828.7 245.7 1874.3 241.3L1920 237L1920 301L1874.3 301C1828.7 301 1737.3 301 1645.8 301C1554.3 301 1462.7 301 1371.2 301C1279.7 301 1188.3 301 1097 301C1005.7 301 914.3 301 823 301C731.7 301 640.3 301 548.8 301C457.3 301 365.7 301 274.2 301C182.7 301 91.3 301 45.7 301L0 301Z" fill="#8fbcbb"></path></svg>